<svg width="256" height="180" xmlns="http://www.w3.org/2000/svg" preserveAspectRatio="xMidYMid">

 <g>
  <title>background</title>
  <rect fill="none" id="canvas_background" height="402" width="582" y="-1" x="-1"/>
 </g>
 <g>
  <title>Layer 1</title>
  <g id="svg_1">
   <path id="svg_2" fill="#00A1E0" d="m106.5532,19.651245c8.247932,-8.594009 19.730904,-13.923843 32.430672,-13.923843c16.882019,0 31.610977,9.413712 39.454529,23.388565c6.816193,-3.045624 14.361008,-4.739655 22.299271,-4.739655c30.448837,0 55.134323,24.900436 55.134323,55.615219c0,30.718422 -24.685486,55.618851 -55.134323,55.618851c-3.715942,0 -7.348083,-0.371582 -10.860016,-1.081985c-6.907272,12.320877 -20.069702,20.645309 -35.177551,20.645309c-6.324371,0 -12.306305,-1.460876 -17.632492,-4.05838c-7.001984,16.470352 -23.315689,28.01889 -42.328903,28.01889c-19.800125,0 -36.674858,-12.528534 -43.152248,-30.099091c-2.830669,0.601105 -5.763351,0.914398 -8.77253,0.914398c-23.57435,0 -42.685931,-19.308289 -42.685931,-43.130379c0,-15.963966 8.58673,-29.902374 21.34479,-37.359756c-2.626659,-6.043854 -4.08754,-12.71434 -4.08754,-19.727257c0,-27.395935 22.24099,-49.604141 49.673359,-49.604141c16.106041,0 30.419693,7.657761 39.494591,19.523254"/>
   <path id="svg_3" fill="#FFFFFF" d="m37.170071,92.956154c-0.16029,0.418953 0.058289,0.506393 0.109299,0.579247c0.480881,0.349747 0.969051,0.601112 1.460869,0.88163c2.60844,1.384377 5.071171,1.788757 7.64682,1.788757c5.246033,0 8.502941,-2.790604 8.502941,-7.282524l0,-0.087433c0,-4.153107 -3.675869,-5.661339 -7.125858,-6.750618l-0.448101,-0.145721c-2.601151,-0.8452 -4.845291,-1.573814 -4.845291,-3.286057l0,-0.09108c0,-1.464508 1.311512,-2.54287 3.344341,-2.54287c2.258709,0 4.940022,0.750481 6.66684,1.704971c0,0 0.50639,0.327866 0.692181,-0.163956c0.102009,-0.262283 0.976349,-2.61573 1.067421,-2.870735c0.09837,-0.276871 -0.0765,-0.480888 -0.255013,-0.590179c-1.970909,-1.19857 -4.69593,-2.018265 -7.515667,-2.018265l-0.524601,0.003639c-4.801582,0 -8.15321,2.899895 -8.15321,7.056641l0,0.08744c0,4.382622 3.69772,5.803421 7.162289,6.794334l0.557388,0.171227c2.524651,0.775978 4.699574,1.442657 4.699574,3.220482l0,0.087433c0,1.624809 -1.413521,2.83432 -3.69408,2.83432c-0.885273,0 -3.708652,-0.018227 -6.757912,-1.945412c-0.36795,-0.214943 -0.58289,-0.37159 -0.86705,-0.542809c-0.149361,-0.094727 -0.524601,-0.258667 -0.688541,0.236794l-1.034637,2.870743l0,0z"/>
   <path id="svg_4" fill="#FFFFFF" d="m113.96978,92.956154c-0.160294,0.418953 0.058289,0.506393 0.109291,0.579247c0.480888,0.349747 0.969055,0.601112 1.460876,0.88163c2.608444,1.384377 5.071159,1.788757 7.64682,1.788757c5.246033,0 8.502945,-2.790604 8.502945,-7.282524l0,-0.087433c0,-4.153107 -3.675873,-5.661339 -7.125862,-6.750618l-0.448097,-0.145721c-2.601166,-0.8452 -4.845306,-1.573814 -4.845306,-3.286057l0,-0.09108c0,-1.464508 1.311516,-2.54287 3.344353,-2.54287c2.258698,0 4.94001,0.750481 6.666832,1.704971c0,0 0.506393,0.327866 0.692184,-0.163956c0.102005,-0.262283 0.976349,-2.61573 1.067429,-2.870735c0.098358,-0.276871 -0.076508,-0.480888 -0.25502,-0.590179c-1.970901,-1.19857 -4.695938,-2.018265 -7.515671,-2.018265l-0.524605,0.003639c-4.801582,0 -8.153206,2.899895 -8.153206,7.056641l0,0.08744c0,4.382622 3.697723,5.803421 7.1623,6.794334l0.557381,0.171227c2.524643,0.775978 4.703217,1.442657 4.703217,3.220482l0,0.087433c0,1.624809 -1.41716,2.83432 -3.697723,2.83432c-0.885269,0 -3.708656,-0.018227 -6.757904,-1.945412c-0.367966,-0.214943 -0.58654,-0.364304 -0.863426,-0.542809c-0.094704,-0.061943 -0.539169,-0.233177 -0.692177,0.236794l-1.03463,2.870743l0,0z"/>
   <path id="svg_5" fill="#FFFFFF" d="m166.398773,84.157394c0,2.53923 -0.473602,4.539276 -1.406235,5.952789c-0.921692,1.398941 -2.317001,2.0802 -4.26239,2.0802c-1.949051,0 -3.337067,-0.677612 -4.244186,-2.0802c-0.91806,-1.409874 -1.384369,-3.413559 -1.384369,-5.952789c0,-2.535568 0.466309,-4.531982 1.384369,-5.930923c0.90712,-1.384369 2.295135,-2.058342 4.244186,-2.058342c1.945389,0 3.340698,0.673973 4.266037,2.058342c0.928986,1.398941 1.402588,3.395355 1.402588,5.930923m4.378967,-4.706856c-0.429871,-1.453583 -1.100204,-2.735947 -1.992752,-3.803368c-0.892563,-1.071068 -2.021912,-1.930832 -3.362564,-2.557442c-1.337006,-0.622971 -2.918106,-0.939903 -4.692276,-0.939903c-1.777832,0 -3.358917,0.316933 -4.695938,0.939903c-1.340652,0.62661 -2.470001,1.486374 -3.366196,2.557442c-0.888916,1.07106 -1.559235,2.353424 -1.992767,3.803368c-0.426239,1.446304 -0.641174,3.027397 -0.641174,4.706856c0,1.679459 0.214935,3.264198 0.641174,4.706856c0.433533,1.449951 1.100204,2.732315 1.996414,3.803375c0.892548,1.071068 2.025543,1.927185 3.362549,2.535583c1.340652,0.608391 2.918106,0.918053 4.695938,0.918053c1.77417,0 3.351624,-0.309662 4.692276,-0.918053c1.337006,-0.608398 2.470001,-1.464516 3.362564,-2.535583c0.892548,-1.067421 1.562881,-2.349785 1.992752,-3.803375c0.429886,-1.446297 0.644836,-3.031036 0.644836,-4.706856c0,-1.675812 -0.214951,-3.260551 -0.644836,-4.706856"/>
   <path id="svg_6" fill="#FFFFFF" d="m206.737488,91.51239c-0.145721,-0.426239 -0.557404,-0.265945 -0.557404,-0.265945c-0.637527,0.244087 -1.31514,0.469955 -2.036469,0.582886c-0.732269,0.112946 -1.537384,0.171234 -2.400787,0.171234c-2.12027,0 -3.803375,-0.630264 -5.009232,-1.876183c-1.209503,-1.245941 -1.887115,-3.260559 -1.879837,-5.98558c0.007294,-2.480942 0.604752,-4.346191 1.679459,-5.766991c1.067429,-1.413521 2.692245,-2.138481 4.859863,-2.138481c1.806976,0 3.184052,0.207657 4.626709,0.66304c0,0 0.3461,0.149361 0.51004,-0.302376c0.382523,-1.063782 0.666672,-1.825188 1.074707,-2.994614c0.116577,-0.33152 -0.167587,-0.47361 -0.269592,-0.513664c-0.568314,-0.222229 -1.908966,-0.582901 -2.921753,-0.735916c-0.947189,-0.145714 -2.054688,-0.222214 -3.286041,-0.222214c-1.839767,0 -3.479141,0.313293 -4.881729,0.939911c-1.398941,0.622963 -2.586594,1.482727 -3.526505,2.553795c-0.939911,1.07106 -1.653946,2.353424 -2.131195,3.803375c-0.473602,1.446297 -0.71405,3.034676 -0.71405,4.714134c0,3.632149 0.979996,6.568459 2.914474,8.717896c1.93811,2.1567 4.848923,3.253258 8.64502,3.253258c2.244125,0 4.546555,-0.455383 6.200516,-1.107498c0,0 0.31694,-0.153 0.178513,-0.52095l-1.074707,-2.969116l0,0z"/>
   <path id="svg_7" fill="#FFFFFF" d="m214.3992,81.724915c0.207657,-1.409874 0.597473,-2.582939 1.198578,-3.497353c0.90712,-1.388023 2.291489,-2.149422 4.236893,-2.149422c1.945404,0 3.231415,0.765045 4.153107,2.149422c0.612045,0.914413 0.877991,2.138481 0.983643,3.497353l-10.57222,0l0,0zm14.74353,-3.100266c-0.371582,-1.40258 -1.293289,-2.81974 -1.898041,-3.468208c-0.954483,-1.027336 -1.887115,-1.745026 -2.812454,-2.145767c-1.209503,-0.517319 -2.659439,-0.859764 -4.247833,-0.859764c-1.850677,0 -3.530136,0.309654 -4.892639,0.950829c-1.366165,0.641197 -2.513733,1.515533 -3.413574,2.604813c-0.899841,1.085632 -1.577454,2.378929 -2.007324,3.847084c-0.433533,1.460876 -0.652115,3.05291 -0.652115,4.732361c0,1.708603 0.225876,3.300629 0.673965,4.732353c0.451736,1.442665 1.17308,2.714096 2.149414,3.766945c0.972702,1.060135 2.225922,1.890755 3.726868,2.470009c1.490021,0.5756 3.300629,0.874336 5.380829,0.870689c4.280609,-0.014572 6.535675,-0.969063 7.464661,-1.482727c0.16394,-0.09108 0.320587,-0.251373 0.123871,-0.710403l-0.969055,-2.714088c-0.145737,-0.404381 -0.557404,-0.25502 -0.557404,-0.25502c-1.060135,0.393456 -2.568359,1.100212 -6.083939,1.092926c-2.298782,-0.003647 -4.003738,-0.681259 -5.071152,-1.741394c-1.096573,-1.085632 -1.632111,-2.681305 -1.726822,-4.932724l14.823685,0.014572c0,0 0.389801,-0.007278 0.429871,-0.386162c0.014572,-0.160301 0.51004,-3.045616 -0.440811,-6.386322l0,0z"/>
   <path id="svg_8" fill="#FFFFFF" d="m95.682991,81.724915c0.211296,-1.409874 0.597466,-2.582939 1.19857,-3.497353c0.907127,-1.388023 2.291496,-2.149422 4.2369,-2.149422c1.945412,0 3.231407,0.765045 4.156746,2.149422c0.608406,0.914413 0.874344,2.138481 0.979996,3.497353l-10.572212,0l0,0zm14.739891,-3.100266c-0.371605,-1.40258 -1.28965,-2.81974 -1.894402,-3.468208c-0.954491,-1.027336 -1.887108,-1.745026 -2.812454,-2.145767c-1.209503,-0.517319 -2.659447,-0.859764 -4.247833,-0.859764c-1.847046,0 -3.530136,0.309654 -4.892647,0.950829c-1.366158,0.641197 -2.513725,1.515533 -3.413567,2.604813c-0.899841,1.085632 -1.577446,2.378929 -2.007332,3.847084c-0.429886,1.460876 -0.652115,3.05291 -0.652115,4.732361c0,1.708603 0.225876,3.300629 0.673981,4.732353c0.451729,1.442665 1.173058,2.714096 2.149406,3.766945c0.972702,1.060135 2.225922,1.890755 3.726868,2.470009c1.490021,0.5756 3.300629,0.874336 5.380821,0.870689c4.280624,-0.014572 6.535683,-0.969063 7.464668,-1.482727c0.16394,-0.09108 0.32058,-0.251373 0.123863,-0.710403l-0.965424,-2.714088c-0.149361,-0.404381 -0.561028,-0.25502 -0.561028,-0.25502c-1.060143,0.393456 -2.564728,1.100212 -6.087578,1.092926c-2.295143,-0.003647 -4.000099,-0.681259 -5.06752,-1.741394c-1.096558,-1.085632 -1.632103,-2.681305 -1.726822,-4.932724l14.823677,0.014572c0,0 0.389816,-0.007278 0.429886,-0.386162c0.014565,-0.160301 0.51004,-3.045616 -0.44445,-6.386322l0,0z"/>
   <path id="svg_9" fill="#FFFFFF" d="m63.641769,91.431152c-0.57925,-0.462677 -0.659401,-0.579262 -0.856129,-0.877975c-0.291451,-0.455391 -0.440811,-1.103867 -0.440811,-1.927193c0,-1.304222 0.429882,-2.240494 1.322441,-2.87075c-0.010929,0.003647 1.275066,-1.111137 4.298817,-1.07106c2.123924,0.029137 4.021965,0.342453 4.021965,0.342453l0,6.739685l0.003647,0c0,0 -1.883476,0.404381 -4.003746,0.531891c-3.016464,0.182152 -4.357113,-0.870697 -4.346184,-0.86705m5.898132,-10.415558c-0.601105,-0.043724 -1.380722,-0.069221 -2.313354,-0.069221c-1.271431,0 -2.499146,0.160294 -3.650356,0.469948c-1.158501,0.309669 -2.20042,0.794205 -3.096622,1.435387c-0.899837,0.644814 -1.624809,1.468155 -2.14941,2.444504c-0.524609,0.976341 -0.790546,2.127556 -0.790546,3.417206c0,1.311508 0.225868,2.45179 0.677608,3.384415c0.45174,0.936272 1.103859,1.715889 1.934479,2.317001c0.82333,0.601097 1.839752,1.041924 3.020111,1.307861c1.162136,0.265953 2.48093,0.400742 3.923588,0.400742c1.519165,0 3.034683,-0.123871 4.502846,-0.375229c1.453583,-0.247742 3.238693,-0.608406 3.734154,-0.721344c0.491814,-0.116577 1.038269,-0.265938 1.038269,-0.265938c0.36795,-0.09108 0.338814,-0.484535 0.338814,-0.484535l-0.007294,-13.555885c0,-2.972748 -0.794189,-5.176811 -2.357063,-6.542969c-1.555595,-1.362511 -3.847092,-2.051056 -6.808907,-2.051056c-1.111145,0 -2.899895,0.153015 -3.970955,0.36795c0,0 -3.238701,0.62661 -4.572063,1.668533c0,0 -0.291447,0.182152 -0.131149,0.590179l1.049202,2.81974c0.131149,0.364311 0.484528,0.240448 0.484528,0.240448c0,0 0.112942,-0.043716 0.244091,-0.120232c2.852531,-1.551933 6.459167,-1.504585 6.459167,-1.504585c1.602966,0 2.83432,0.320602 3.66494,0.95813c0.808762,0.619316 1.220436,1.555595 1.220436,3.530136l0,0.62661c-1.27507,-0.182144 -2.444511,-0.287796 -2.444511,-0.287796"/>
   <path id="svg_10" fill="#FFFFFF" d="m189.099136,73.377525c0.11293,-0.335167 -0.123871,-0.495453 -0.222229,-0.531883c-0.251373,-0.098373 -1.511871,-0.364311 -2.484573,-0.426247c-1.861618,-0.112938 -2.896255,0.200371 -3.821594,0.615677c-0.91806,0.415314 -1.93811,1.08564 -2.506439,1.847046l0,-1.803329c0,-0.251373 -0.178513,-0.451736 -0.426239,-0.451736l-3.799728,0c-0.247726,0 -0.426239,0.200363 -0.426239,0.451736l0,22.10984c0,0.247726 0.20401,0.451736 0.451736,0.451736l3.894455,0c0.247726,0 0.448105,-0.20401 0.448105,-0.451736l0,-11.045807c0,-1.482735 0.163925,-2.96183 0.491806,-3.8908c0.320587,-0.918076 0.757767,-1.653976 1.296936,-2.182213c0.542816,-0.524597 1.158493,-0.892563 1.832474,-1.100212c0.688538,-0.211296 1.449936,-0.280518 1.98912,-0.280518c0.77597,0 1.628448,0.200371 1.628448,0.200371c0.284164,0.032791 0.444458,-0.142082 0.539169,-0.400742c0.25502,-0.677612 0.976349,-2.706802 1.114792,-3.111183"/>
   <path id="svg_11" fill="#FFFFFF" d="m152.543762,63.130287c-0.473602,-0.145729 -0.903473,-0.244087 -1.464508,-0.349739c-0.568329,-0.102005 -1.245941,-0.153008 -2.014618,-0.153008c-2.681305,0 -4.794296,0.757759 -6.277023,2.251427c-1.475449,1.486374 -2.477295,3.748726 -2.980042,6.725113l-0.182159,1.001854l-3.366196,0c0,0 -0.40802,-0.01458 -0.495468,0.429878l-0.550095,3.085686c-0.04007,0.291451 0.087433,0.477242 0.480881,0.477242l3.275131,0l-3.322495,18.550552c-0.258652,1.49366 -0.557388,2.721382 -0.888901,3.654007c-0.324234,0.918053 -0.64119,1.60659 -1.034637,2.109329c-0.378876,0.480896 -0.735901,0.837914 -1.355225,1.04557c-0.510025,0.171219 -1.100204,0.251373 -1.745041,0.251373c-0.35701,0 -0.834259,-0.058289 -1.187637,-0.131149c-0.349731,-0.069221 -0.535538,-0.145721 -0.801483,-0.258659c0,0 -0.382523,-0.145721 -0.535522,0.236801c-0.120224,0.316948 -0.994568,2.717735 -1.100212,3.012825c-0.102005,0.295082 0.043716,0.524605 0.229515,0.593819c0.437164,0.153015 0.761406,0.255013 1.355225,0.397102c0.823334,0.193077 1.519165,0.20401 2.171265,0.20401c1.362518,0 2.608444,-0.193092 3.639435,-0.564674c1.034637,-0.375244 1.938126,-1.027351 2.739594,-1.908981c0.863419,-0.954483 1.406235,-1.952682 1.923553,-3.31884c0.513672,-1.347931 0.954483,-3.02375 1.304214,-4.97644l3.340714,-18.896645l4.881714,0c0,0 0.411667,0.014572 0.495468,-0.433525l0.553741,-3.082047c0.036423,-0.29509 -0.087433,-0.477234 -0.484528,-0.477234l-4.739639,0c0.025497,-0.105652 0.240433,-1.774185 0.783249,-3.344345c0.23317,-0.666687 0.670334,-1.209511 1.038284,-1.5811c0.364304,-0.364311 0.783264,-0.622971 1.242294,-0.772331c0.469955,-0.153008 1.005478,-0.225868 1.592026,-0.225868c0.444443,0 0.885254,0.051003 1.216782,0.120209c0.45903,0.098373 0.637543,0.149376 0.757751,0.185806c0.484543,0.145714 0.55011,0.003647 0.644836,-0.229515l1.132996,-3.111191c0.116577,-0.335159 -0.171234,-0.477234 -0.273239,-0.517311"/>
   <path id="svg_12" fill="#FFFFFF" d="m86.321739,95.189713c0,0.247726 -0.178513,0.448097 -0.426239,0.448097l-3.930878,0c-0.247734,0 -0.4226,-0.200371 -0.4226,-0.448097l0,-31.636482c0,-0.247726 0.174866,-0.448097 0.4226,-0.448097l3.930878,0c0.247726,0 0.426239,0.200371 0.426239,0.448097l0,31.636482l0,0z"/>
  </g>
  <text xml:space="preserve" text-anchor="start" font-family="Junction, sans-serif" font-size="24" id="svg_14" y="129.950012" x="131.5" stroke-opacity="null" stroke-width="0" stroke="#000" fill="#ffffff">Auto</text>
  <path id="svg_15" d="m92.326012,119.38073c-13.808418,0 -24.999962,11.191658 -24.999962,25.000069c0,13.805832 11.191544,24.999939 24.999962,24.999939c13.807167,0 25.000008,-11.194107 25.000008,-24.999939c0,-13.808411 -11.192841,-25.000069 -25.000008,-25.000069zm14.423996,23.223244c-2.496101,2.871399 -6.374092,3.821411 -9.778267,2.729568l-12.364838,14.21788c-1.317551,1.514557 -3.610268,1.669205 -5.123367,0.351883s-1.674622,-3.609161 -0.358231,-5.123642l12.381798,-14.233536c-1.536629,-3.207397 -1.131172,-7.16275 1.35305,-10.018326c2.351707,-2.708702 5.939651,-3.70089 9.199585,-2.879333l-4.737595,5.525116l1.549835,4.508942l4.682404,0.908157l4.74929,-5.537979c1.286209,3.120834 0.813705,6.832077 -1.553665,9.55127z" stroke-opacity="null" stroke-width="0" stroke="#000" fill="#ffffff"/>
 </g>
</svg>